<svg width="512" height="512" viewBox="0 0 512 512" fill="none" xmlns="http://www.w3.org/2000/svg">
<g clip-path="url(#clip0_781_58545)">
<path d="M8.00781 256.001C8.00781 119.034 119.041 8.00092 256.008 8.00092C392.974 8.00092 504.008 119.034 504.008 256.001C504.008 392.968 392.974 504.001 256.008 504.001C119.041 504.001 8.00781 392.968 8.00781 256.001Z" fill="url(#paint0_linear_781_58545)" stroke="white" stroke-width="16"/>
<path fill-rule="evenodd" clip-rule="evenodd" d="M115.88 253.298C190.509 220.783 240.273 199.347 265.173 188.99C336.267 159.42 351.04 154.283 360.668 154.114C362.786 154.076 367.521 154.601 370.588 157.09C373.178 159.191 373.891 162.03 374.232 164.023C374.573 166.015 374.997 170.554 374.66 174.101C370.807 214.58 354.137 312.814 345.656 358.152C342.068 377.336 335.002 383.768 328.161 384.398C313.295 385.766 302.006 374.573 287.607 365.134C265.076 350.365 252.347 341.171 230.476 326.758C205.201 310.102 221.586 300.948 235.99 285.987C239.76 282.072 305.262 222.493 306.529 217.088C306.688 216.412 306.835 213.892 305.338 212.562C303.841 211.231 301.632 211.686 300.038 212.048C297.778 212.561 261.784 236.352 192.056 283.421C181.839 290.436 172.585 293.854 164.293 293.675C155.153 293.478 137.57 288.507 124.499 284.258C108.467 279.047 95.7254 276.292 96.8349 267.441C97.4128 262.831 103.761 258.117 115.88 253.298Z" fill="white"/>
</g>
<defs>
<linearGradient id="paint0_linear_781_58545" x1="256.008" y1="0.000915527" x2="256.008" y2="512.001" gradientUnits="userSpaceOnUse">
<stop stop-color="#97593F"/>
<stop offset="0.5" stop-color="#A63E3E"/>
<stop offset="1" stop-color="#470E0E"/>
</linearGradient>
<clipPath id="clip0_781_58545">
<rect width="512" height="512" fill="white"/>
</clipPath>
</defs>
</svg>
