<svg width="512" height="512" viewBox="0 0 512 512" fill="none" xmlns="http://www.w3.org/2000/svg">
<g clip-path="url(#clip0_799_58549)">
<path d="M8.00781 256.001C8.00781 119.034 119.041 8.00092 256.008 8.00092C392.974 8.00092 504.008 119.034 504.008 256.001C504.008 392.968 392.974 504.001 256.008 504.001C119.041 504.001 8.00781 392.968 8.00781 256.001Z" fill="url(#paint0_linear_799_58549)" stroke="white" stroke-width="16"/>
<path d="M117 255.993C117 237.275 120.707 219.299 128.12 202.064C135.533 184.829 145.356 170.003 157.588 157.586C169.82 145.169 184.647 135.347 202.068 128.119C219.489 120.892 237.467 117.185 256 117C274.904 117 292.974 120.706 310.21 128.119C327.446 135.532 342.18 145.355 354.412 157.586C366.644 169.817 376.467 184.643 383.88 202.064C391.293 219.484 395 237.461 395 255.993V308.254C395 322.71 389.903 334.941 379.71 344.949C369.517 354.956 357.285 360.053 343.014 360.238C329.855 360.238 318.457 355.975 308.82 347.45C299.183 338.926 293.437 328.269 291.584 315.482C280.279 322.154 268.417 325.49 256 325.49C243.397 325.49 231.814 322.432 221.25 316.316C210.686 310.2 202.161 301.768 195.674 291.019C189.187 280.271 186.129 268.595 186.5 255.993C186.5 236.905 193.265 220.596 206.794 207.068C220.323 193.539 236.725 186.682 256 186.497C275.275 186.311 291.677 193.168 305.206 207.068C318.735 220.967 325.5 237.275 325.5 255.993V308.254C325.5 312.888 327.261 316.965 330.782 320.486C334.303 324.007 338.381 325.675 343.014 325.49C347.647 325.49 351.725 323.822 355.246 320.486C358.767 317.15 360.435 313.073 360.25 308.254V255.993C360.25 237.09 355.617 219.67 346.35 203.732C337.083 187.794 324.388 175.192 308.264 165.926C292.14 156.659 274.719 151.934 256 151.748C237.281 151.563 219.86 156.289 203.736 165.926C187.612 175.562 174.917 188.164 165.65 203.732C156.383 219.299 151.75 236.719 151.75 255.993C151.75 275.267 156.383 292.78 165.65 308.532C174.917 324.285 187.612 336.887 203.736 346.339C219.86 355.79 237.281 360.423 256 360.238H273.514C278.147 360.238 282.225 361.998 285.746 365.52C289.267 369.041 290.935 373.118 290.75 377.751C290.565 382.384 288.897 386.461 285.746 389.982C282.595 393.504 278.518 395.171 273.514 394.986H256C237.096 394.986 219.119 391.372 202.068 384.145C185.017 376.917 170.191 367.002 157.588 354.4C144.985 341.798 135.163 326.972 128.12 309.922C121.077 292.873 117.371 274.896 117 255.993ZM221.25 255.993C221.25 265.63 224.679 273.877 231.536 280.734C238.393 287.591 246.548 290.927 256 290.741C265.452 290.556 273.607 287.22 280.464 280.734C287.321 274.247 290.75 266.001 290.75 255.993C290.75 245.986 287.321 237.831 280.464 231.53C273.607 225.229 265.452 221.801 256 221.245C246.548 220.689 238.393 224.117 231.536 231.53C224.679 238.943 221.25 247.098 221.25 255.993Z" fill="white"/>
</g>
<defs>
<linearGradient id="paint0_linear_799_58549" x1="256.008" y1="0.000915527" x2="256.008" y2="512.001" gradientUnits="userSpaceOnUse">
<stop stop-color="#CFAA78"/>
<stop offset="0.5" stop-color="#9F7851"/>
<stop offset="1" stop-color="#5D4A37"/>
</linearGradient>
<clipPath id="clip0_799_58549">
<rect width="512" height="512" fill="white"/>
</clipPath>
</defs>
</svg>
